<?xml version="1.0" encoding="utf-8"?>
<!-- Generator: Adobe Illustrator 15.0.2, SVG Export Plug-In . SVG Version: 6.00 Build 0)  -->
<!DOCTYPE svg PUBLIC "-//W3C//DTD SVG 1.1//EN" "http://www.w3.org/Graphics/SVG/1.1/DTD/svg11.dtd">
<svg version="1.1" id="Layer_1" xmlns="http://www.w3.org/2000/svg" xmlns:xlink="http://www.w3.org/1999/xlink" x="0px" y="0px"
	 width="180px" height="200px" viewBox="0 0 180 200" enable-background="new 0 0 180 200" xml:space="preserve">
<g>
	<path fill="#8DCF3F" d="M94.477,7.509l1.836,0.029c37.618,0.55,59.184,32.067,58.526,77.027
		c-0.951,65.143-37.379,108.662-87.842,107.925l-24.773-0.364c-10.662-24.013-17.548-55.316-17.052-89.267
		C26.044,43.221,50.439,6.867,94.477,7.509z"/>
	<g>
		<path fill="#FFFFFF" d="M45.187,133.646c-0.612-0.383-1.109-1.073-1.109-1.99c0-1.301,0.996-2.297,2.296-2.297
			c0.42,0,0.842,0.115,1.147,0.307c1.951,1.225,3.903,1.836,5.548,1.836c1.684,0,2.449-0.611,2.449-1.529v-0.076
			c0-1.264-1.989-1.685-4.247-2.373c-2.87-0.842-6.123-2.182-6.123-6.159v-0.077c0-4.171,3.366-6.505,7.499-6.505
			c2.143,0,4.362,0.573,6.352,1.569c0.841,0.42,1.377,1.187,1.377,2.18c0,1.303-1.033,2.297-2.333,2.297
			c-0.421,0-0.69-0.076-1.072-0.268c-1.645-0.805-3.213-1.301-4.438-1.301c-1.416,0-2.143,0.609-2.143,1.414v0.077
			c0,1.146,1.952,1.685,4.171,2.449c2.87,0.956,6.198,2.332,6.198,6.083v0.076c0,4.554-3.406,6.619-7.843,6.619
			C50.391,135.978,47.674,135.25,45.187,133.646z"/>
		<path fill="#FFFFFF" d="M64.486,110.19c0-1.684,1.416-2.717,3.251-2.717c1.837,0,3.252,1.033,3.252,2.717v0.076
			c0,1.686-1.415,2.754-3.252,2.754c-1.836,0-3.251-1.069-3.251-2.754V110.19z M64.831,117.765c0-1.605,1.302-2.908,2.907-2.908
			c1.608,0,2.909,1.303,2.909,2.908v15.152c0,1.607-1.301,2.908-2.909,2.908c-1.606,0-2.907-1.301-2.907-2.908V117.765
			L64.831,117.765z"/>
		<path fill="#FFFFFF" d="M76.572,129.779v-9.72h-0.191c-1.377,0-2.487-1.108-2.487-2.487c0-1.377,1.109-2.487,2.487-2.487h0.191
			v-2.562c0-1.606,1.302-2.908,2.909-2.908s2.908,1.302,2.908,2.908v2.562h2.564c1.377,0,2.487,1.109,2.487,2.487
			c0,1.379-1.109,2.487-2.487,2.487h-2.564v8.763c0,1.339,0.574,1.989,1.875,1.989c0.191,0,0.574-0.039,0.69-0.039
			c1.301,0,2.41,1.072,2.41,2.41c0,1.035-0.69,1.875-1.493,2.181c-1.072,0.422-2.066,0.573-3.329,0.573
			C78.982,135.938,76.572,134.525,76.572,129.779z"/>
		<path fill="#FFFFFF" d="M100.229,136.056c-6.16,0-10.712-4.324-10.712-10.6v-0.077c0-5.854,4.169-10.675,10.14-10.675
			c6.849,0,9.871,5.624,9.871,9.872c0,1.685-1.187,2.793-2.717,2.793H95.294c0.574,2.64,2.411,4.017,5.012,4.017
			c1.608,0,2.947-0.496,4.133-1.377c0.422-0.305,0.805-0.459,1.416-0.459c1.303,0,2.258,0.995,2.258,2.297
			c0,0.766-0.344,1.34-0.766,1.722C105.547,135.099,103.214,136.056,100.229,136.056z M103.979,123.733
			c-0.346-2.602-1.875-4.361-4.322-4.361c-2.412,0-3.979,1.721-4.439,4.361H103.979z"/>
		<path fill="#FFFFFF" d="M45.99,143.138c0-1.605,1.301-2.906,2.908-2.906s2.909,1.301,2.909,2.906v22.575
			c0,1.607-1.301,2.909-2.909,2.909c-1.606,0-2.908-1.302-2.908-2.909V143.138z"/>
		<path fill="#FFFFFF" d="M65.543,168.851c-6.16,0-10.714-4.321-10.714-10.599v-0.075c0-5.854,4.171-10.676,10.14-10.676
			c6.848,0,9.87,5.623,9.87,9.871c0,1.684-1.186,2.793-2.716,2.793H60.607c0.574,2.641,2.41,4.018,5.012,4.018
			c1.606,0,2.946-0.498,4.132-1.377c0.421-0.306,0.804-0.461,1.416-0.461c1.302,0,2.258,0.998,2.258,2.297
			c0,0.767-0.344,1.34-0.765,1.723C70.86,167.894,68.527,168.851,65.543,168.851z M69.292,156.53
			c-0.344-2.602-1.875-4.362-4.323-4.362c-2.411,0-3.979,1.722-4.439,4.362H69.292z"/>
		<path fill="#FFFFFF" d="M76.255,162.499v-0.076c0-4.479,3.405-6.543,8.265-6.543c2.066,0,3.558,0.344,5.012,0.842v-0.346
			c0-2.408-1.493-3.749-4.4-3.749c-1.607,0-2.909,0.23-4.018,0.574c-0.344,0.114-0.574,0.153-0.843,0.153
			c-1.339,0-2.411-1.033-2.411-2.372c0-1.034,0.652-1.913,1.569-2.259c1.836-0.688,3.827-1.071,6.542-1.071
			c3.176,0,5.47,0.843,6.923,2.296c1.531,1.531,2.222,3.789,2.222,6.543v9.336c0,1.568-1.264,2.794-2.831,2.794
			c-1.686,0-2.793-1.188-2.793-2.412v-0.038c-1.415,1.569-3.367,2.604-6.198,2.604C79.43,168.774,76.255,166.556,76.255,162.499z
			 M89.609,161.16v-1.033c-0.995-0.459-2.296-0.767-3.712-0.767c-2.487,0-4.018,0.996-4.018,2.833v0.075
			c0,1.569,1.301,2.488,3.175,2.488C87.773,164.757,89.609,163.265,89.609,161.16z"/>
		<path fill="#FFFFFF" d="M99.556,152.856h-0.229c-1.34,0-2.41-1.031-2.41-2.37c0-1.341,1.07-2.411,2.41-2.411h0.229v-1.303
			c0-2.258,0.573-3.901,1.646-4.973c1.071-1.072,2.641-1.606,4.708-1.606c0.917,0,1.721,0.038,2.371,0.151
			c0.994,0.152,1.99,1.032,1.99,2.334c0,1.301-1.072,2.41-2.373,2.41h-0.498c-1.338,0-2.104,0.688-2.104,2.221v0.803h2.524
			c1.34,0,2.41,1.033,2.41,2.373c0,1.339-1.07,2.371-2.41,2.371h-2.448v12.855c0,1.607-1.302,2.908-2.908,2.908
			s-2.907-1.302-2.907-2.908V152.856L99.556,152.856z"/>
	</g>
</g>
</svg>
